<?xml version="1.0" encoding="UTF-8" standalone="no"?>
<!DOCTYPE svg PUBLIC "-//W3C//DTD SVG 1.1//EN" "http://www.w3.org/Graphics/SVG/1.1/DTD/svg11.dtd">
<svg width="100%" height="100%" viewBox="0 0 24 24" version="1.1" xmlns="http://www.w3.org/2000/svg" xmlns:xlink="http://www.w3.org/1999/xlink" xml:space="preserve" xmlns:serif="http://www.serif.com/" style="fill-rule:evenodd;clip-rule:evenodd;stroke-linejoin:round;stroke-miterlimit:2;">
    <rect id="Artboard1" x="0" y="0" width="24" height="24" style="fill:none;"/>
    <g>
        <path d="M4.273,4.438l2.585,7.254l2.785,-7.57c0.218,-0.609 0.433,-1.04 0.644,-1.293c0.21,-0.254 0.53,-0.38 0.959,-0.38c0.406,-0 0.751,0.136 1.035,0.409c0.285,0.273 0.427,0.589 0.427,0.948c0,0.14 -0.025,0.304 -0.076,0.491c-0.05,0.188 -0.109,0.363 -0.175,0.527c-0.066,0.164 -0.142,0.351 -0.228,0.561l-3.066,7.605c-0.086,0.219 -0.197,0.496 -0.333,0.831c-0.137,0.336 -0.289,0.622 -0.456,0.86c-0.168,0.238 -0.375,0.423 -0.621,0.556c-0.245,0.132 -0.544,0.199 -0.895,0.199c-0.452,-0 -0.813,-0.104 -1.082,-0.31c-0.269,-0.207 -0.468,-0.433 -0.597,-0.679c-0.128,-0.246 -0.345,-0.731 -0.649,-1.457l-3.042,-7.523c-0.07,-0.187 -0.142,-0.374 -0.216,-0.561c-0.074,-0.187 -0.137,-0.379 -0.188,-0.574c-0.05,-0.195 -0.076,-0.362 -0.076,-0.503c0,-0.218 0.067,-0.435 0.199,-0.649c0.133,-0.215 0.316,-0.39 0.55,-0.527c0.234,-0.136 0.488,-0.204 0.761,-0.204c0.53,-0 0.895,0.152 1.094,0.456c0.199,0.304 0.419,0.815 0.661,1.533Z"/>
        <path d="M23.001,17.374c0,0.882 -0.214,1.636 -0.643,2.264c-0.429,0.628 -1.063,1.104 -1.902,1.428c-0.838,0.323 -1.858,0.485 -3.059,0.485c-1.147,0 -2.129,-0.175 -2.948,-0.526c-0.819,-0.351 -1.424,-0.79 -1.814,-1.316c-0.39,-0.527 -0.585,-1.055 -0.585,-1.586c0,-0.351 0.125,-0.651 0.374,-0.901c0.25,-0.249 0.566,-0.374 0.948,-0.374c0.336,-0 0.593,0.082 0.772,0.246c0.18,0.163 0.351,0.393 0.515,0.69c0.328,0.569 0.72,0.994 1.176,1.275c0.456,0.281 1.078,0.421 1.866,0.421c0.64,0 1.164,-0.142 1.574,-0.427c0.409,-0.284 0.614,-0.61 0.614,-0.977c0,-0.561 -0.213,-0.971 -0.638,-1.228c-0.425,-0.258 -1.125,-0.503 -2.1,-0.737c-1.1,-0.273 -1.995,-0.56 -2.685,-0.86c-0.69,-0.3 -1.242,-0.696 -1.655,-1.188c-0.414,-0.491 -0.621,-1.096 -0.621,-1.813c0,-0.64 0.192,-1.244 0.574,-1.814c0.382,-0.569 0.945,-1.024 1.69,-1.363c0.745,-0.339 1.644,-0.509 2.697,-0.509c0.827,0 1.57,0.086 2.229,0.258c0.659,0.171 1.209,0.401 1.65,0.69c0.44,0.289 0.776,0.608 1.006,0.959c0.23,0.351 0.345,0.695 0.345,1.03c0,0.367 -0.123,0.667 -0.368,0.901c-0.246,0.234 -0.595,0.351 -1.048,0.351c-0.327,-0 -0.606,-0.094 -0.836,-0.281c-0.23,-0.187 -0.493,-0.468 -0.79,-0.842c-0.242,-0.312 -0.526,-0.562 -0.854,-0.749c-0.328,-0.187 -0.772,-0.281 -1.334,-0.281c-0.577,0 -1.057,0.123 -1.439,0.369c-0.382,0.245 -0.573,0.551 -0.573,0.918c-0,0.335 0.14,0.61 0.421,0.825c0.281,0.214 0.659,0.392 1.135,0.532c0.476,0.141 1.131,0.312 1.966,0.515c0.99,0.242 1.799,0.53 2.427,0.866c0.628,0.335 1.104,0.731 1.428,1.187c0.323,0.457 0.485,0.977 0.485,1.562Z"/>
    </g>
</svg>
